<svg t="1649420584299" class="icon" viewBox="0 0 1024 1024" version="1.1" xmlns="http://www.w3.org/2000/svg" p-id="2002" width="200" height="200"><path d="M510.000604 1022.008004c-136.023745 0-263.967505-53.023901-360.263325-149.31172C53.46546 776.432464 0.297559 648.376704 0.00156 512.10496c-0.287999-135.751745 51.607903-263.527506 146.119726-359.799326C240.657109 56.001815 367.320871 1.945916 502.776617 0.04992 632.960373-1.758077 757.616139 45.625834 853.679959 133.47367c25.727952 23.519956 38.567928 56.999893 35.223934 91.839828-3.359994 35.079934-22.503958 65.727877-52.495901 84.079842l-290.631455 177.759667c-12.047977 7.375986-13.359975 19.135964-13.359975 23.847955 0 4.719991 1.311998 16.479969 13.359975 23.855955l290.623455 177.759667c29.999944 18.351966 49.135908 48.991908 52.495901 84.063842 3.343994 34.855935-9.503982 68.343872-35.239934 91.887828a39.791925 39.791925 0 0 1-56.287894-2.575995 39.967925 39.967925 0 0 1 2.567995-56.399894c9.647982-8.831983 10.175981-19.615963 9.639982-25.263953a30.799942 30.799942 0 0 0-14.695972-23.559956l-290.623455-177.759667c-32.26394-19.735963-51.519903-54.127899-51.519904-91.999827 0-37.879929 19.255964-72.271864 51.519904-91.999828l290.631455-177.759666a30.831942 30.831942 0 0 0 14.695972-23.567956c0.535999-5.647989 0.008-16.423969-9.623982-25.231953-81.047848-74.119861-186.239651-114.119786-296.079445-112.559789-238.367553 3.319994-424.695204 193.103638-424.191204 432.05519 0.503999 237.223555 193.543637 430.223193 430.319193 430.223193 52.111902 0 103.031807-9.223983 151.335716-27.415948a39.815925 39.815925 0 0 1 51.311904 23.327956 39.935925 39.935925 0 0 1-23.279957 51.407904 507.119049 507.119049 0 0 1-179.367663 32.519939z m15.94397-836.358432a39.879925 39.879925 0 0 0-39.839925 39.919925c0 22.047959 17.839967 39.919925 39.839925 39.919925 21.999959 0 39.839925-17.871966 39.839925-39.919925 0-22.055959-17.839967-39.919925-39.839925-39.919925z m314.76741 285.439465a39.887925 39.887925 0 0 0-39.839926 39.919925c0 22.047959 17.839967 39.919925 39.839926 39.919925a39.871925 39.871925 0 0 0 39.839925-39.919925 39.879925 39.879925 0 0 0-39.839925-39.919925z m-139.455739 0a39.887925 39.887925 0 0 0-39.839925 39.919925c0 22.047959 17.839967 39.919925 39.839925 39.919925a39.871925 39.871925 0 0 0 39.839925-39.919925c0-22.047959-17.823967-39.919925-39.839925-39.919925z m280.903473 0a39.887925 39.887925 0 0 0-39.839925 39.919925c0 22.047959 17.839967 39.919925 39.839925 39.919925 21.999959 0 39.839925-17.871966 39.839926-39.919925 0-22.047959-17.839967-39.919925-39.839926-39.919925z" fill="#b7d28d" p-id="2003"></path></svg>
